<svg fill="none" height="24" viewBox="0 0 100 24" width="100" xmlns="http://www.w3.org/2000/svg"><path d="m1.66357 2.59811-1.66356981 2.26327c.17511281.25423.40025781.45265.67543481.58287.938105.45265 2.176405-.03101 3.189555-1.11613l-.11258-4.32812038-1.13823 1.30215038.90058-.0496-.3127 1.25875z" fill="#ee2438" transform="translate(14.7637 15.2169)"/><path d="m1.06124 2.98913c.45029.8495.30644 1.17814.41276 1.51918.16261.52086 1.28833-.52086 2.22643-.8805.93811-.35965 1.71361-.09922 2.23269.21082 0 0 1.03191-.17982-1.06318-2.67252-2.0951-2.49269-4.99697-.409246-4.86563561.89291.05003221.48986.80051561.43405 1.05693561.93011z" fill="#ee2438" transform="translate(7.82227)"/><path d="m27.9528 3.49782c-2.0638-4.334313-10.9883-3.4166041-10.9883-3.4166041 2.4891.7254861 3.1145 2.5112941 3.2646 3.4972141-.3127-.57047-.7005-1.09133-1.157-1.54398-4.4216-4.35912-14.14662 1.07893-14.14662 1.07893.00626 0 .00626.0062.01251.0062-2.10135 1.12233-5.27214 3.3546-4.9094068 6.42396.5378458 4.56376 9.6624668 2.00906 9.6624668 2.00906s-.33771-.0186-.81927-.0744c-2.05758-.0434-3.51477-.5519-3.73366-1.4696-.26267-1.09753 1.32585-2.4803 3.85248-3.55923 1.2195 1.56879 1.9575 3.3794 2.1514 5.23343.4378 4.2351-1.19453 8.433 2.7768 7.3355 1.7136-.4713 3.152-1.4386 4.2902-2.6974-1.4321 1.3766-3.0957 1.9533-4.384 1.3332-1.9513-.9425-2.2828-4.2909-.738-7.4781 1.5447-3.18716 4.3778-5.00398 6.3353-4.06147 1.2508.60147 1.8387 2.19507 1.6886 4.09867.0751-.42163.1251-.84948.1564-1.27113 1.9575-.34104 8.4366-1.75481 6.6855-5.44425zm-6.6793 5.20242c.0813-1.58739-.1563-3.13757-.7317-4.47073.5691-.04341 1.8887-.08061 2.6017.44645 1.9387 1.41377-.6567 3.28019-1.87 4.02428z" fill="#ee2438" transform="translate(0 4.33411)"/><path d="m4.97871.170546c-1.33211-.644877-3.2646.595271-4.315276 2.771734-.456544.94251-.6754351 1.90982-.66292704 2.74692l3.15202304-4.27851 2.05133-.11781.18136-.0124.10632 3.98087c1.04442-2.17026.81928-4.445927-.51283-5.090804z" fill="#ee2438" transform="translate(14.2754 12.6221)"/><g fill="#000"><path d="m17.0314 12.7132 1.6189-12.71319797h-5.5175l-13.1328 12.76299797h5.35225l3.84899-3.85046h3.84896l.9086-2.97084h-1.7345l2.7091-2.7053-1.1398 9.4768z" transform="translate(21.5 8.00867)"/><path d="m4.01419 12.7962 1.17287-9.95813c2.09795-.58089 2.62656.19917 2.79176.48132.36342.58089.23127 1.37754-.28083 1.82566-.34691.31534-.89204.46471-1.94928.33193l-.29734 2.25718c1.18938.39833 3.83247.43152 4.79063-.81325l.7598-5.80892c-.4955-.614084-1.17282-.879632-1.71796-.962617-.71033-.0995812-1.2885-.14937097-2.18055-.14937097h-5.4844l-1.6188905 12.77959797h4.0141905z" transform="translate(39.207 7.92566)"/><path d="m12.0426 2.80488c-.1817-.74686-.5617-1.31116-1.0903-1.72608-.97465-.780058-2.4779-1.07880203-4.32806-1.07880203h-5.03839l-1.58585101 12.77960203h3.98115101l.64425-5.46036.52862-4.48117c2.09795-.58089 2.62657.19916 2.79176.48131.36342.58089.23127 1.37755-.28083 1.82566-.3469.31534-.89204.46472-1.94928.33194l-.28082 2.20739c.41298.14938.87552.23236 1.33806.28215.61121.03319 1.30502-.0166 1.93276-.16597.39646-.09958.7764-.24895 1.10679-.43152 1.75104-.94602 2.65964-2.80488 2.23014-4.56415z" transform="translate(49.3184 8.02527)"/><path d="m3.56817.00000203h-1.04072l-2.52745101 2.52272797.01652031.59749h3.6838007z" transform="translate(73.6836 17.6349)"/><path d="m15.9081-.00000203h-5.8644l-1.81709 6.93751203-1.83365-6.93751203h-5.03838l-1.3545805 12.74640203h3.6672805l.37995-9.11167 2.29618 6.92087.09912.2656 2.01535-1.95844 3.25432-3.15342.6773-2.07461.0495 1.36094 3.5352-3.43556z" transform="translate(60.9316 8.02527)"/></g><path d="m17.6756 12.7132 1.4042-12.71319797h-5.947l-13.13280101 12.76299797h5.35225101l3.86552-3.85046h3.84903l.9085-2.97084h-1.751l2.7257-2.7053-1.1564 9.4768z" fill="#ee2438" transform="translate(66.498 8.00867)"/><path d="m4.12982 12.7132h-4.12981798l1.33805798-12.71319797h5.26966l4.70798 8.08269797v-8.08269797h3.6343v12.71319797h-5.15406l-4.80712-7.93329z" fill="#000" transform="translate(85.0508 8.00867)"/></svg>