<svg width="17" height="17" viewBox="0 0 17 17" fill="none" xmlns="http://www.w3.org/2000/svg">
<path d="M0.899999 1.76471H20.1C20.595 1.76471 21 1.36765 21 0.882353C21 0.397059 20.595 9.50374e-09 20.1 9.50374e-09H0.899999C0.405 9.50374e-09 0 0.397059 0 0.882353C0 1.36765 0.405 1.76471 0.899999 1.76471Z" transform="translate(1.69922) rotate(45)" fill="#EE2438"/>
<path d="M0.899999 1.76471H20.1C20.595 1.76471 21 1.36765 21 0.882353C21 0.397059 20.595 4.05493e-07 20.1 4.05493e-07H0.899999C0.405 4.05493e-07 0 0.397059 0 0.882353C0 1.36765 0.405 1.76471 0.899999 1.76471Z" transform="translate(0.451172 14.981) rotate(-45)" fill="#EE2438"/>
</svg>
