<svg fill="none" height="15" viewBox="0 0 21 15" width="21" xmlns="http://www.w3.org/2000/svg"><g fill="#ee2438"><path d="m.899999 1.76471h19.200001c.495 0 .9-.39706.9-.882357 0-.485294-.405-.88235299-.9-.88235299h-19.200001c-.494999 0-.899999.39705899-.899999.88235299 0 .485297.405.882357.899999.882357z"/><path d="m.899999 1.76471h19.200001c.495 0 .9-.39706.9-.882357 0-.485295-.405-.88235339-.9-.88235339h-19.200001c-.494999 0-.899999.39705839-.899999.88235339 0 .485297.405.882357.899999.882357z" transform="translate(0 6.61755)"/><path d="m.899999 1.76471h19.200001c.495 0 .9-.39706.9-.882357 0-.485294-.405-.88235259-.9-.88235259h-19.200001c-.494999 0-.899999.39705859-.899999.88235259 0 .485297.405.882357.899999.882357z" transform="translate(0 13.2354)"/></g></svg>